<svg width="1440" height="977" viewBox="0 0 1440 977" fill="none" xmlns="http://www.w3.org/2000/svg">
<path d="M1481 1151.1C1385.16 1046.71 1264.8 976.406 1119.71 992.583C924.565 1014.46 757.299 1146.11 585.862 1230.87C499.176 1273.7 405.267 1311.04 307.288 1312.26C177.871 1313.58 71.7522 1243.58 -13 1151.1V1146.22C71.7522 1238.8 177.871 1309 307.288 1307.28C405.267 1306.16 499.176 1268.82 585.862 1225.88C757.299 1141.23 924.565 1009.57 1119.71 987.699C1264.8 971.522 1385.46 1041.83 1481 1146.22V1151.1Z" fill="#BCBEC0" fill-opacity="0.02"/>
<path d="M1481 1137.26C1385.16 1032.87 1264.8 962.569 1119.71 979.051C924.565 1000.52 757.299 1132.28 585.862 1216.93C499.176 1259.76 405.267 1297.1 307.288 1298.32C177.871 1299.85 71.7522 1229.95 -13 1137.36V1132.38C71.7522 1225.07 177.871 1295.17 307.288 1293.44C405.267 1292.32 499.176 1254.98 585.862 1212.04C757.299 1127.39 924.565 995.636 1119.71 973.862C1264.8 957.584 1385.46 1027.89 1481 1132.28V1137.26Z" fill="#BCBEC0" fill-opacity="0.02"/>
<path d="M1481 1123.32C1385.16 1018.93 1264.8 948.527 1119.71 964.908C924.565 986.681 757.299 1118.34 585.862 1202.89C499.176 1245.72 405.267 1283.06 307.288 1284.28C177.871 1285.81 71.7522 1215.91 -13 1123.22V1118.44C71.7522 1211.03 177.871 1281.23 307.288 1279.5C405.267 1278.38 499.176 1241.04 585.862 1198.1C757.299 1113.35 924.565 981.696 1119.71 959.821C1264.8 943.644 1385.46 1013.95 1481 1118.34V1123.32Z" fill="#BCBEC0" fill-opacity="0.02"/>
<path d="M1481 1109.49C1385.16 1005.1 1264.8 934.793 1119.71 950.97C924.565 972.845 757.299 1104.5 585.862 1189.25C499.176 1232.09 405.267 1269.43 307.288 1270.65C177.871 1272.07 71.7522 1202.17 -13 1109.59V1104.7C71.7522 1197.29 177.871 1267.49 307.288 1265.66C405.267 1264.54 499.176 1227.2 585.862 1184.27C757.299 1099.62 924.565 967.859 1119.71 946.086C1264.8 929.909 1385.46 1000.21 1481 1104.6V1109.49Z" fill="#BCBEC0" fill-opacity="0.02"/>
<path d="M1481 1095.65C1385.16 991.159 1264.8 920.956 1119.71 937.133C924.565 958.703 757.299 1090.97 585.862 1175.31C499.176 1218.15 405.267 1255.49 307.288 1256.71C177.871 1258.24 71.7522 1188.34 -13 1095.75V1090.97C71.7522 1183.35 177.871 1253.76 307.288 1251.72C405.267 1250.6 499.176 1213.26 585.862 1170.33C757.299 1085.68 924.565 954.022 1119.71 932.249C1264.8 915.97 1385.16 986.275 1481 1090.97V1095.65Z" fill="#BCBEC0" fill-opacity="0.02"/>
<path d="M1481 1081.71C1385.16 977.321 1264.8 907.017 1119.71 923.296C924.565 945.069 757.299 1076.72 585.862 1161.48C499.176 1204.31 405.267 1241.65 307.288 1242.87C177.871 1244.4 71.7522 1174.5 -13 1081.81V1076.93C71.7522 1169.51 177.871 1239.72 307.288 1237.99C405.267 1236.87 499.176 1199.53 585.862 1156.59C757.299 1071.84 924.565 940.185 1119.71 918.005C1264.8 901.828 1385.46 972.133 1481 1076.52V1081.71Z" fill="#BCBEC0" fill-opacity="0.02"/>
<path d="M1481 1067.87C1385.16 963.485 1264.8 893.18 1119.71 909.357C924.565 931.232 757.299 1062.89 585.862 1147.64C499.176 1190.47 405.267 1227.81 307.288 1229.03C177.871 1230.46 71.7522 1160.56 -13 1067.98V1063.09C71.7522 1155.68 177.871 1225.88 307.288 1224.05C405.267 1222.93 499.176 1185.59 585.862 1142.65C757.299 1058 924.565 926.247 1119.71 904.473C1264.8 888.296 1385.16 958.703 1481 1062.99V1067.87Z" fill="#BCBEC0" fill-opacity="0.02"/>
<path d="M1481 1053.93C1385.16 949.546 1264.8 879.343 1119.71 895.52C924.565 917.293 757.299 1049.05 585.862 1133.7C499.176 1176.54 405.267 1213.88 307.288 1215.1C177.871 1216.62 71.7522 1146.72 -13 1054.04V1049.15C71.7522 1141.74 177.871 1211.94 307.288 1210.21C405.267 1209.09 499.176 1171.75 585.862 1128.82C757.299 1044.07 924.565 912.409 1119.71 890.636C1264.8 874.357 1385.46 944.662 1481 1049.05V1053.93Z" fill="#BCBEC0" fill-opacity="0.02"/>
<path d="M1481 1040.1C1385.16 935.708 1264.8 865.403 1119.71 881.58C924.565 903.455 757.299 1035.11 585.862 1119.86C499.176 1162.7 405.267 1200.04 307.288 1201.26C177.871 1202.89 71.7522 1132.68 -13 1040.1V1035.21C71.7522 1127.8 177.871 1198 307.288 1196.27C405.267 1195.15 499.176 1157.81 585.862 1114.88C757.299 1029.92 924.565 898.571 1119.71 876.696C1264.8 860.519 1385.46 930.824 1481 1035.21V1040.1Z" fill="#BCBEC0" fill-opacity="0.02"/>
<path d="M1481 1026.26C1385.16 921.871 1264.8 851.567 1119.71 867.744C924.565 889.619 757.299 1021.27 585.862 1105.93C499.176 1148.86 405.267 1186.2 307.288 1187.32C177.871 1188.74 71.7522 1118.85 -13 1026.26V1021.27C71.7522 1113.96 177.871 1184.06 307.288 1182.33C405.267 1181.22 499.176 1143.88 585.862 1100.94C757.299 1016.29 924.565 884.531 1119.71 862.758C1264.8 846.785 1385.16 916.886 1481 1021.27V1026.26Z" fill="#BCBEC0" fill-opacity="0.02"/>
<path d="M1481 1012.32C1385.16 907.831 1264.8 837.628 1119.71 853.907C924.565 875.68 757.299 1007.44 585.862 1092.09C499.176 1134.92 405.267 1172.26 307.288 1173.48C177.871 1175.01 71.7522 1105.11 -13 1012.42V1007.54C71.7522 1100.13 177.871 1170.33 307.288 1168.6C405.267 1167.48 499.176 1130.14 585.862 1087.2C757.299 1002.45 924.565 870.796 1119.71 848.921C1264.8 832.744 1385.46 903.049 1481 1007.44V1012.32Z" fill="#BCBEC0" fill-opacity="0.02"/>
<path d="M1481 998.484C1385.16 894.095 1264.8 823.79 1119.71 839.967C924.565 861.842 757.299 993.498 585.862 1078.25C499.176 1121.08 405.267 1158.42 307.288 1159.65C177.871 1160.97 71.7522 1090.97 -13 998.484V993.6C71.7522 1086.19 177.871 1156.39 307.288 1154.66C405.267 1153.44 499.176 1116.2 585.862 1073.26C757.299 988.614 924.565 856.958 1119.71 835.084C1264.8 818.906 1385.46 889.211 1481 993.6V998.484Z" fill="#BCBEC0" fill-opacity="0.02"/>
<path d="M1481 984.648C1385.16 880.259 1264.8 809.954 1119.71 826.437C924.565 847.904 757.299 979.662 585.862 1064.31C499.176 1107.15 405.267 1144.49 307.288 1145.71C177.871 1147.23 71.7522 1077.34 -13 984.749V979.764C71.7522 1072.45 177.871 1142.55 307.288 1140.82C405.267 1139.7 499.176 1102.36 585.862 1059.43C757.299 974.779 924.565 843.021 1119.71 821.248C1264.8 804.969 1385.46 875.273 1481 979.662V984.648Z" fill="#BCBEC0" fill-opacity="0.02"/>
<path d="M1481 970.708C1385.16 866.319 1264.8 795.913 1119.71 812.294C924.565 834.067 757.299 965.723 585.862 1050.27C499.176 1093.11 405.267 1130.45 307.288 1131.67C177.871 1133.19 71.7522 1063.29 -13 970.606V965.824C71.7522 1058.41 177.871 1128.61 307.288 1126.88C405.267 1125.77 499.176 1088.43 585.862 1045.49C757.299 960.737 924.565 829.081 1119.71 807.206C1264.8 791.029 1385.46 861.334 1481 965.723V970.708Z" fill="#BCBEC0" fill-opacity="0.02"/>
<path d="M1481 956.871C1385.16 852.482 1264.8 782.178 1119.71 798.355C924.565 820.23 757.299 951.886 585.862 1036.64C499.176 1079.47 405.267 1116.81 307.288 1118.03C177.871 1119.46 71.7522 1049.56 -13 956.973V952.089C71.7522 1044.68 177.871 1114.88 307.288 1113.05C405.267 1111.93 499.176 1074.59 585.862 1031.65C757.299 947.002 924.565 815.244 1119.71 793.471C1264.8 777.294 1385.46 847.599 1481 951.987V956.871Z" fill="#BCBEC0" fill-opacity="0.02"/>
<path d="M1481 943.034C1385.16 838.544 1264.8 768.341 1119.71 784.518C924.565 806.088 757.299 938.354 585.862 1022.7C499.176 1065.53 405.267 1102.87 307.288 1104.09C177.871 1105.62 71.7522 1035.72 -13 943.136V938.354C71.7522 1030.74 177.871 1101.14 307.288 1099.11C405.267 1097.99 499.176 1060.65 585.862 1017.71C757.299 933.064 924.565 801.408 1119.71 779.635C1264.8 763.356 1385.16 833.66 1481 938.354V943.034Z" fill="#BCBEC0" fill-opacity="0.02"/>
<path d="M1481 929.095C1385.16 824.707 1264.8 754.402 1119.71 770.681C924.565 792.454 757.299 924.11 585.862 1008.86C499.176 1051.7 405.267 1089.04 307.288 1090.26C177.871 1091.78 71.7522 1021.78 -13 929.197V924.313C71.7522 1016.9 177.871 1087.1 307.288 1085.37C405.267 1084.25 499.176 1046.91 585.862 1003.98C757.299 919.226 924.565 787.57 1119.71 765.39C1264.8 749.213 1385.46 819.518 1481 923.907V929.095Z" fill="#BCBEC0" fill-opacity="0.02"/>
<path d="M1481 915.258C1385.16 810.869 1264.8 740.565 1119.71 756.742C924.565 778.617 757.299 910.273 585.862 995.025C499.176 1037.86 405.267 1075.2 307.288 1076.42C177.871 1077.84 71.7522 1007.95 -13 915.36V910.476C71.7522 1003.06 177.871 1073.27 307.288 1071.43C405.267 1070.32 499.176 1032.98 585.862 990.04C757.299 905.389 924.565 773.631 1119.71 751.858C1264.8 735.681 1385.16 806.087 1481 910.374V915.258Z" fill="#BCBEC0" fill-opacity="0.02"/>
<path d="M1481 901.319C1385.16 796.93 1264.8 726.728 1119.71 742.905C924.565 764.678 757.299 896.436 585.862 981.086C499.176 1023.92 405.267 1061.26 307.288 1062.48C177.871 1064.01 71.7522 994.109 -13 901.421V896.537C71.7522 989.124 177.871 1059.33 307.288 1057.6C405.267 1056.48 499.176 1019.14 585.862 976.202C757.299 891.45 924.565 759.794 1119.71 738.021C1264.8 721.742 1385.46 792.047 1481 896.436V901.319Z" fill="#BCBEC0" fill-opacity="0.02"/>
<path d="M1481 887.481C1385.16 783.093 1264.8 712.788 1119.71 728.965C924.565 750.84 757.299 882.496 585.862 967.248C499.176 1010.08 405.267 1047.42 307.288 1048.64C177.871 1050.27 71.7522 980.068 -13 887.481V882.598C71.7522 975.184 177.871 1045.39 307.288 1043.66C405.267 1042.54 499.176 1005.2 585.862 962.263C757.299 877.307 924.565 745.956 1119.71 724.081C1264.8 707.904 1385.46 778.209 1481 882.598V887.481Z" fill="#BCBEC0" fill-opacity="0.02"/>
<path d="M1481 873.645C1385.16 769.256 1264.8 698.951 1119.71 715.128C924.565 737.003 757.299 868.659 585.862 953.31C499.176 996.245 405.267 1033.59 307.288 1034.7C177.871 1036.13 71.7522 966.231 -13 873.645V868.659C71.7522 961.347 177.871 1031.45 307.288 1029.72C405.267 1028.6 499.176 991.26 585.862 948.324C757.299 863.674 924.565 731.916 1119.71 710.143C1264.8 694.169 1385.16 764.27 1481 868.659V873.645Z" fill="#BCBEC0" fill-opacity="0.02"/>
<path d="M1481 859.705C1385.16 755.215 1264.8 685.012 1119.71 701.291C924.565 723.064 757.299 854.822 585.862 939.472C499.176 982.306 405.267 1019.65 307.288 1020.87C177.871 1022.39 71.7522 952.495 -13 859.807V854.924C71.7522 947.51 177.871 1017.71 307.288 1015.98C405.267 1014.86 499.176 977.524 585.862 934.589C757.299 849.836 924.565 718.18 1119.71 696.306C1264.8 680.128 1385.46 750.433 1481 854.822V859.705Z" fill="#BCBEC0" fill-opacity="0.02"/>
<path d="M1481 845.868C1385.16 741.479 1264.8 671.175 1119.71 687.352C924.565 709.227 757.299 840.883 585.862 925.635C499.176 968.469 405.267 1005.81 307.288 1007.03C177.871 1008.35 71.7522 938.353 -13 845.868V840.984C71.7522 933.571 177.871 1003.77 307.288 1002.04C405.267 1000.82 499.176 963.483 585.862 920.649C757.299 835.999 924.565 704.343 1119.71 682.468C1264.8 666.291 1385.46 736.596 1481 840.984V845.868Z" fill="#BCBEC0" fill-opacity="0.02"/>
<path d="M1481 832.032C1385.16 727.643 1264.8 657.339 1119.71 673.821C924.565 695.289 757.299 827.047 585.862 911.697C499.176 954.531 405.267 991.871 307.288 993.092C177.871 994.618 71.7522 924.72 -13 832.134V827.148C71.7522 919.837 177.871 989.938 307.288 988.208C405.267 987.089 499.176 949.749 585.862 906.813C757.299 822.163 924.565 690.405 1119.71 668.632C1264.8 652.353 1385.46 722.658 1481 827.047V832.032Z" fill="#BCBEC0" fill-opacity="0.02"/>
<path d="M1481 818.092C1385.16 713.704 1264.8 643.297 1119.71 659.678C924.565 681.451 757.299 813.107 585.862 897.656C499.176 940.49 405.267 977.83 307.288 979.05C177.871 980.577 71.7522 910.679 -13 817.991V813.209C71.7522 905.795 177.871 975.998 307.288 974.269C405.267 973.149 499.176 935.81 585.862 892.874C757.299 808.122 924.565 676.466 1119.71 654.591C1264.8 638.414 1385.46 708.718 1481 813.107V818.092Z" fill="#BCBEC0" fill-opacity="0.02"/>
<path d="M1481 804.256C1385.16 699.867 1264.8 629.562 1119.71 645.74C924.565 667.614 757.299 799.27 585.862 884.023C499.176 926.857 405.267 964.196 307.288 965.417C177.871 966.842 71.7522 896.944 -13 804.358V799.474C71.7522 892.06 177.871 962.263 307.288 960.432C405.267 959.313 499.176 921.973 585.862 879.037C757.299 794.387 924.565 662.629 1119.71 640.856C1264.8 624.679 1385.46 694.983 1481 799.372V804.256Z" fill="#BCBEC0" fill-opacity="0.02"/>
<path d="M1481 790.419C1385.16 685.928 1264.8 615.726 1119.71 631.903C924.565 653.472 757.299 785.739 585.862 870.084C499.176 912.918 405.267 950.258 307.288 951.479C177.871 953.005 71.7522 883.107 -13 790.521V785.739C71.7522 878.122 177.871 948.528 307.288 946.493C405.267 945.374 499.176 908.034 585.862 865.099C757.299 780.448 924.565 648.792 1119.71 627.019C1264.8 610.74 1385.16 681.045 1481 785.739V790.419Z" fill="#BCBEC0" fill-opacity="0.02"/>
<path d="M1481 776.48C1385.16 672.091 1264.8 601.786 1119.71 618.065C924.565 639.838 757.299 771.494 585.862 856.247C499.176 899.081 405.267 936.42 307.288 937.641C177.871 939.167 71.7522 869.168 -13 776.581V771.698C71.7522 864.284 177.871 934.487 307.288 932.758C405.267 931.638 499.176 894.299 585.862 851.363C757.299 766.611 924.565 634.955 1119.71 612.775C1264.8 596.597 1385.46 666.902 1481 771.291V776.48Z" fill="#BCBEC0" fill-opacity="0.02"/>
<path d="M1481 762.643C1385.16 658.254 1264.8 587.95 1119.71 604.127C924.565 626.002 757.299 757.658 585.862 842.41C499.176 885.244 405.267 922.584 307.288 923.805C177.871 925.229 71.7522 855.331 -13 762.745V757.759C71.7522 850.448 177.871 920.549 307.288 918.819C405.267 917.7 499.176 880.36 585.862 837.424C757.299 752.774 924.565 621.016 1119.71 599.243C1264.8 583.066 1385.16 653.472 1481 757.658V762.643Z" fill="#BCBEC0" fill-opacity="0.02"/>
<path d="M1481 748.704C1385.16 644.315 1264.8 574.112 1119.71 590.289C924.565 612.063 757.299 743.82 585.862 828.471C499.176 871.305 405.267 908.645 307.288 909.866C177.871 911.392 71.7522 841.494 -13 748.806V743.922C71.7522 836.509 177.871 906.712 307.288 904.982C405.267 903.863 499.176 866.523 585.862 823.587C757.299 738.835 924.565 607.179 1119.71 585.406C1264.8 569.127 1385.46 639.432 1481 743.82V748.704Z" fill="#BCBEC0" fill-opacity="0.02"/>
<path d="M1481 734.866C1385.16 630.477 1264.8 560.173 1119.71 576.35C924.565 598.225 757.299 729.881 585.862 814.633C499.176 857.467 405.267 894.807 307.288 896.028C177.871 897.656 71.7522 827.453 -13 734.866V729.982C71.7522 822.569 177.871 892.772 307.288 891.042C405.267 889.923 499.176 852.583 585.862 809.648C757.299 724.692 924.565 593.341 1119.71 571.466C1264.8 555.289 1385.46 625.594 1481 729.982V734.866Z" fill="#BCBEC0" fill-opacity="0.02"/>
<path d="M1481 721.03C1385.16 616.641 1264.8 546.336 1119.71 562.514C924.565 584.388 757.299 716.044 585.862 800.695C499.176 843.631 405.267 880.869 307.288 882.09C177.871 883.514 71.7522 813.616 -13 721.03V716.044C71.7522 808.733 177.871 878.834 307.288 877.104C405.267 875.985 499.176 838.645 585.862 795.71C757.299 711.059 924.565 579.301 1119.71 557.528C1264.8 541.555 1385.16 611.656 1481 716.044V721.03Z" fill="#BCBEC0" fill-opacity="0.02"/>
<path d="M1481 707.091C1385.16 602.6 1264.8 532.397 1119.71 548.676C924.565 570.449 757.299 702.207 585.862 786.858C499.176 829.692 405.267 867.031 307.288 868.252C177.871 869.778 71.7522 799.881 -13 707.192V702.309C71.7522 794.895 177.871 865.098 307.288 863.369C405.267 862.249 499.176 824.91 585.862 781.974C757.299 697.222 924.565 565.566 1119.71 543.691C1264.8 527.514 1385.46 597.818 1481 702.207V707.091Z" fill="#BCBEC0" fill-opacity="0.02"/>
<path d="M1481 693.253C1385.16 588.865 1264.8 518.56 1119.71 534.737C924.565 556.612 757.299 688.268 585.862 773.02C499.176 815.854 405.267 853.194 307.288 854.415C177.871 855.738 71.7522 785.738 -13 693.253V688.37C71.7522 780.956 177.871 851.159 307.288 849.328C405.267 848.208 499.176 810.869 585.862 767.933C757.299 683.384 924.565 551.728 1119.71 529.853C1264.8 513.676 1385.46 583.981 1481 688.37V693.253Z" fill="#BCBEC0" fill-opacity="0.02"/>
<path d="M1481 679.417C1385.16 575.029 1264.8 504.724 1119.71 521.206C924.565 542.674 757.299 674.432 585.862 759.082C499.176 801.916 405.267 839.256 307.288 840.477C177.871 842.003 71.7522 772.106 -13 679.519V674.534C71.7522 767.222 177.871 837.323 307.288 835.593C405.267 834.474 499.176 797.134 585.862 754.199C757.299 669.446 924.565 537.79 1119.71 516.017C1264.8 499.738 1385.46 570.043 1481 674.432V679.417Z" fill="#BCBEC0" fill-opacity="0.02"/>
<path d="M1481 665.478C1385.16 561.089 1264.8 490.682 1119.71 507.063C924.565 528.836 757.299 660.492 585.862 745.041C499.176 787.875 405.267 825.215 307.288 826.436C177.871 827.962 71.7522 758.064 -13 665.376V660.594C71.7522 753.18 177.871 823.383 307.288 821.654C405.267 820.535 499.176 783.195 585.862 740.259C757.299 655.507 924.565 523.851 1119.71 501.976C1264.8 485.799 1385.46 556.103 1481 660.492V665.478Z" fill="#BCBEC0" fill-opacity="0.02"/>
<path d="M1481 651.641C1385.16 547.252 1264.8 476.947 1119.71 493.124C924.565 514.999 757.299 646.655 585.862 731.407C499.176 774.241 405.267 811.581 307.288 812.802C177.871 814.226 71.7522 744.329 -13 651.742V646.859C71.7522 739.445 177.871 809.648 307.288 807.817C405.267 806.697 499.176 769.358 585.862 726.422C757.299 641.771 924.565 510.014 1119.71 488.241C1264.8 472.063 1385.46 542.368 1481 646.757V651.641Z" fill="#BCBEC0" fill-opacity="0.02"/>
<path d="M1481 637.804C1385.16 533.314 1264.8 463.111 1119.71 479.288C924.565 500.858 757.299 633.124 585.862 717.469C499.176 760.303 405.267 797.643 307.288 798.864C177.871 800.39 71.7522 730.492 -13 637.906V633.124C71.7522 725.507 177.871 795.913 307.288 793.879C405.267 792.759 499.176 755.42 585.862 712.484C757.299 627.833 924.565 496.177 1119.71 474.404C1264.8 458.125 1385.16 528.43 1481 633.124V637.804Z" fill="#BCBEC0" fill-opacity="0.02"/>
<path d="M1481 623.864C1385.16 519.476 1264.8 449.171 1119.71 465.45C924.565 487.223 757.299 618.879 585.862 703.631C499.176 746.465 405.267 783.805 307.288 785.026C177.871 786.552 71.7522 716.553 -13 623.966V619.083C71.7522 711.669 177.871 781.872 307.288 780.142C405.267 779.023 499.176 741.683 585.862 698.748C757.299 613.995 924.565 482.339 1119.71 460.159C1264.8 443.982 1385.46 514.287 1481 618.676V623.864Z" fill="#BCBEC0" fill-opacity="0.02"/>
<path d="M1481 610.028C1385.16 505.64 1264.8 435.335 1119.71 451.512C924.565 473.387 757.299 605.043 585.862 689.795C499.176 732.629 405.267 769.969 307.288 771.19C177.871 772.614 71.7522 702.717 -13 610.13V605.145C71.7522 697.833 177.871 767.934 307.288 766.204C405.267 765.085 499.176 727.745 585.862 684.81C757.299 600.159 924.565 468.402 1119.71 446.628C1264.8 430.451 1385.16 500.858 1481 605.043V610.028Z" fill="#BCBEC0" fill-opacity="0.02"/>
<path d="M1481 596.089C1385.16 491.701 1264.8 421.498 1119.71 437.675C924.565 459.448 757.299 591.206 585.862 675.856C499.176 718.69 405.267 756.03 307.288 757.251C177.871 758.777 71.7522 688.879 -13 596.191V591.307C71.7522 683.894 177.871 754.097 307.288 752.367C405.267 751.248 499.176 713.908 585.862 670.973C757.299 586.22 924.565 454.564 1119.71 432.791C1264.8 416.512 1385.46 486.817 1481 591.206V596.089Z" fill="#BCBEC0" fill-opacity="0.02"/>
<path d="M1481 582.251C1385.16 477.862 1264.8 407.557 1119.71 423.735C924.565 445.61 757.299 577.265 585.862 662.018C499.176 704.852 405.267 742.192 307.288 743.412C177.871 745.04 71.7522 674.837 -13 582.251V577.367C71.7522 669.954 177.871 740.157 307.288 738.427C405.267 737.308 499.176 699.968 585.862 657.032C757.299 572.077 924.565 440.726 1119.71 418.851C1264.8 402.674 1385.46 472.978 1481 577.367V582.251Z" fill="#BCBEC0" fill-opacity="0.02"/>
<path d="M1481 568.415C1385.16 464.026 1264.8 393.722 1119.71 409.899C924.565 431.774 757.299 563.43 585.862 648.08C499.176 691.016 405.267 728.254 307.288 729.475C177.871 730.899 71.7522 661.001 -13 568.415V563.43C71.7522 656.118 177.871 726.219 307.288 724.489C405.267 723.37 499.176 686.03 585.862 643.095C757.299 558.546 924.565 426.788 1119.71 405.015C1264.8 388.94 1385.16 459.041 1481 563.43V568.415Z" fill="#BCBEC0" fill-opacity="0.02"/>
<path d="M1481 554.475C1385.16 449.985 1264.8 379.782 1119.71 396.061C924.565 417.834 757.299 549.591 585.862 634.242C499.176 677.076 405.267 714.416 307.288 715.637C177.871 717.163 71.7522 647.265 -13 554.577V549.693C71.7522 642.28 177.871 712.483 307.288 710.753C405.267 709.634 499.176 672.294 585.862 629.358C757.299 544.606 924.565 412.95 1119.71 391.075C1264.8 374.898 1385.46 445.203 1481 549.591V554.475Z" fill="#BCBEC0" fill-opacity="0.02"/>
<path d="M1481 540.639C1385.16 436.25 1264.8 365.945 1119.71 382.122C924.565 403.997 757.299 535.653 585.862 620.406C499.176 663.24 405.267 700.579 307.288 701.8C177.871 703.123 71.7522 633.123 -13 540.639V535.755C71.7522 628.342 177.871 698.544 307.288 696.713C405.267 695.594 499.176 658.254 585.862 615.318C757.299 530.77 924.565 399.114 1119.71 377.239C1264.8 361.062 1385.16 431.366 1481 535.755V540.639Z" fill="#BCBEC0" fill-opacity="0.02"/>
<path d="M1481 526.802C1385.16 422.413 1264.8 352.109 1119.71 368.591C924.565 390.059 757.299 521.817 585.862 606.467C499.176 649.301 405.267 686.641 307.288 687.862C177.871 689.388 71.7522 619.49 -13 526.904V521.918C71.7522 614.607 177.871 684.708 307.288 682.978C405.267 681.859 499.176 644.519 585.862 601.584C757.299 516.831 924.565 385.175 1119.71 363.402C1264.8 347.123 1385.16 417.428 1481 521.817V526.802Z" fill="#BCBEC0" fill-opacity="0.02"/>
<path d="M1481 512.862C1385.16 408.474 1264.8 338.067 1119.71 354.448C924.565 376.221 757.299 507.877 585.862 592.426C499.176 635.26 405.267 672.6 307.288 673.82C177.871 675.347 71.7522 605.449 -13 512.761V507.979C71.7522 600.565 177.871 670.768 307.288 669.039C405.267 667.919 499.176 630.58 585.862 587.644C757.299 502.993 924.565 371.337 1119.71 349.463C1264.8 333.285 1385.16 403.59 1481 507.979V512.862Z" fill="#BCBEC0" fill-opacity="0.02"/>
<path d="M1481 499.026C1385.16 394.637 1264.8 324.332 1119.71 340.51C924.565 362.385 757.299 494.04 585.862 578.793C499.176 621.627 405.267 658.967 307.288 660.187C177.871 661.612 71.7522 591.714 -13 499.128V494.244C71.7522 586.83 177.871 657.033 307.288 655.202C405.267 654.083 499.176 616.743 585.862 573.807C757.299 489.157 924.565 357.399 1119.71 335.626C1264.8 319.449 1385.16 389.753 1481 494.142V499.026Z" fill="#BCBEC0" fill-opacity="0.02"/>
<path d="M1481 485.086C1385.16 380.697 1264.8 310.494 1119.71 326.672C924.565 348.241 757.299 480.508 585.862 564.853C499.176 607.687 405.267 645.027 307.288 646.248C177.871 647.774 71.7522 577.876 -13 485.188V480.508C71.7522 572.891 177.871 643.297 307.288 641.262C405.267 640.143 499.176 602.803 585.862 559.867C757.299 475.217 924.565 343.561 1119.71 321.788C1264.8 305.509 1385.16 375.814 1481 480.508V485.086Z" fill="#BCBEC0" fill-opacity="0.02"/>
<path d="M1481 471.25C1385.16 366.861 1264.8 296.556 1119.71 312.835C924.565 334.608 757.299 466.264 585.862 551.017C499.176 593.851 405.267 631.19 307.288 632.411C177.871 633.937 71.7522 563.938 -13 471.352V466.468C71.7522 559.054 177.871 629.257 307.288 627.528C405.267 626.408 499.176 589.069 585.862 546.133C757.299 461.381 924.565 329.725 1119.71 307.545C1264.8 291.673 1385.16 361.977 1481 466.366V471.25Z" fill="#BCBEC0" fill-opacity="0.02"/>
<path d="M1481 457.413C1385.16 353.024 1264.8 282.719 1119.71 298.897C924.565 320.771 757.299 452.427 585.862 537.18C499.176 580.014 405.267 617.353 307.288 618.574C177.871 619.999 71.7522 550.101 -13 457.514V452.529C71.7522 545.217 177.871 615.318 307.288 613.589C405.267 612.47 499.176 575.13 585.862 532.194C757.299 447.544 924.565 315.786 1119.71 294.013C1264.8 277.836 1385.16 348.242 1481 452.427V457.413Z" fill="#BCBEC0" fill-opacity="0.02"/>
<path d="M1481 443.474C1385.16 339.085 1264.8 268.882 1119.71 285.059C924.565 306.832 757.299 438.59 585.862 523.24C499.176 566.074 405.267 603.414 307.288 604.635C177.871 606.161 71.7522 536.264 -13 443.575V438.59C71.7522 531.176 177.871 601.379 307.288 599.65C405.267 598.531 499.176 561.191 585.862 518.255C757.299 433.604 924.565 301.949 1119.71 280.175C1264.8 263.897 1385.16 334.201 1481 438.59V443.474Z" fill="#BCBEC0" fill-opacity="0.02"/>
<path d="M1481 429.636C1385.16 325.247 1264.8 254.943 1119.71 271.12C924.565 292.995 757.299 424.651 585.862 509.403C499.176 552.237 405.267 589.577 307.288 590.798C177.871 592.426 71.7522 522.223 -13 429.636V424.752C71.7522 517.339 177.871 587.542 307.288 585.812C405.267 584.693 499.176 547.353 585.862 504.418C757.299 419.462 924.565 288.111 1119.71 266.236C1264.8 250.059 1385.16 320.364 1481 424.752V429.636Z" fill="#BCBEC0" fill-opacity="0.02"/>
<path d="M1481 415.8C1385.16 311.412 1264.8 241.107 1119.71 257.284C924.565 279.159 757.299 410.815 585.862 495.465C499.176 538.401 405.267 575.639 307.288 576.86C177.871 578.285 71.7522 508.387 -13 415.8V410.815C71.7522 503.503 177.871 573.604 307.288 571.875C405.267 570.756 499.176 533.416 585.862 490.48C757.299 405.931 924.565 274.174 1119.71 252.4C1264.8 236.325 1385.16 306.426 1481 410.815V415.8Z" fill="#BCBEC0" fill-opacity="0.02"/>
<path d="M1481 401.86C1385.16 297.37 1264.8 227.167 1119.71 243.446C924.565 265.219 757.299 396.977 585.862 481.627C499.176 524.461 405.267 561.801 307.288 563.022C177.871 564.548 71.7522 494.65 -13 401.962V396.977C71.7522 489.563 177.871 559.766 307.288 558.036C405.267 556.917 499.176 519.577 585.862 476.642C757.299 391.991 924.565 260.335 1119.71 238.46C1264.8 222.283 1385.16 292.588 1481 396.977V401.86Z" fill="#BCBEC0" fill-opacity="0.02"/>
<path d="M1481 388.023C1385.16 283.635 1264.8 213.33 1119.71 229.507C924.565 251.382 757.299 383.038 585.862 467.79C499.176 510.624 405.267 547.964 307.288 549.185C177.871 550.508 71.7522 480.508 -13 388.023V383.14C71.7522 475.726 177.871 545.929 307.288 544.098C405.267 542.979 499.176 505.639 585.862 462.703C757.299 378.154 924.565 246.498 1119.71 224.623C1264.8 208.446 1385.16 278.751 1481 383.14V388.023Z" fill="#BCBEC0" fill-opacity="0.02"/>
<path d="M1481 374.187C1385.16 269.798 1264.8 199.493 1119.71 215.976C924.565 237.444 757.299 369.201 585.862 453.852C499.176 496.686 405.267 534.026 307.288 535.247C177.871 536.773 71.7522 466.875 -13 374.289V369.201C71.7522 461.89 177.871 531.991 307.288 530.261C405.267 529.142 499.176 491.802 585.862 448.866C757.299 364.216 924.565 232.56 1119.71 210.787C1264.8 194.508 1385.16 264.813 1481 369.201V374.187Z" fill="#BCBEC0" fill-opacity="0.02"/>
<path d="M1481 360.248C1385.16 255.859 1264.8 185.453 1119.71 201.833C924.565 223.606 757.299 355.262 585.862 439.811C499.176 482.645 405.267 519.985 307.288 521.206C177.871 522.732 71.7522 452.834 -13 360.146V355.364C71.7522 447.951 177.871 518.153 307.288 516.424C405.267 515.305 499.176 477.965 585.862 435.029C757.299 350.379 924.565 218.723 1119.71 196.848C1264.8 180.671 1385.16 250.975 1481 355.364V360.248Z" fill="#BCBEC0" fill-opacity="0.02"/>
<path d="M1481 346.411C1385.16 242.022 1264.8 171.717 1119.71 187.894C924.565 209.769 757.299 341.425 585.862 426.177C499.176 469.011 405.267 506.351 307.288 507.572C177.871 508.895 71.7522 438.997 -13 346.411V341.527C71.7522 434.113 177.871 504.316 307.288 502.485C405.267 501.366 499.176 464.026 585.862 421.09C757.299 336.541 924.565 204.784 1119.71 183.011C1264.8 166.833 1385.16 237.138 1481 341.527V346.411Z" fill="#BCBEC0" fill-opacity="0.02"/>
<path d="M1481 332.472C1385.16 228.083 1264.8 157.881 1119.71 174.058C924.565 195.627 757.299 327.894 585.862 412.239C499.176 455.073 405.267 492.413 307.288 493.634C177.871 495.058 71.7522 425.16 -13 332.472V327.894C71.7522 420.277 177.871 490.683 307.288 488.648C405.267 487.529 499.176 450.189 585.862 407.254C757.299 322.603 924.565 190.947 1119.71 169.174C1264.8 152.895 1385.16 223.2 1481 327.894V332.472Z" fill="#BCBEC0" fill-opacity="0.02"/>
<path d="M1481 318.634C1385.16 214.246 1264.8 143.941 1119.71 160.22C924.565 181.993 757.299 313.649 585.862 398.401C499.176 441.235 405.267 478.575 307.288 479.796C177.871 481.322 71.7522 411.323 -13 318.736V313.853C71.7522 406.439 177.871 476.642 307.288 474.912C405.267 473.793 499.176 436.453 585.862 393.518C757.299 308.765 924.565 177.109 1119.71 154.929C1264.8 138.752 1385.46 209.057 1481 313.446V318.634Z" fill="#BCBEC0" fill-opacity="0.02"/>
<path d="M1481 304.798C1385.16 200.409 1264.8 130.105 1119.71 146.282C924.565 168.157 757.299 299.813 585.862 384.565C499.176 427.399 405.267 464.739 307.288 465.96C177.871 467.282 71.7522 397.384 -13 304.798V299.813C71.7522 392.501 177.871 462.602 307.288 460.872C405.267 459.753 499.176 422.413 585.862 379.478C757.299 294.929 924.565 163.171 1119.71 141.398C1264.8 125.221 1385.16 195.627 1481 299.813V304.798Z" fill="#BCBEC0" fill-opacity="0.02"/>
<path d="M1481 290.859C1385.16 186.47 1264.8 116.267 1119.71 132.444C924.565 154.217 757.299 285.975 585.862 370.626C499.176 413.46 405.267 450.799 307.288 452.02C177.871 453.546 71.7522 383.649 -13 290.96V286.077C71.7522 378.663 177.871 448.866 307.288 447.137C405.267 446.017 499.176 408.678 585.862 365.742C757.299 280.99 924.565 149.334 1119.71 127.561C1264.8 111.282 1385.46 181.586 1481 285.975V290.859Z" fill="#BCBEC0" fill-opacity="0.02"/>
<path d="M1481 277.021C1385.16 172.632 1264.8 102.327 1119.71 118.505C924.565 140.38 757.299 272.035 585.862 356.788C499.176 399.622 405.267 436.962 307.288 438.182C177.871 439.81 71.7522 369.607 -13 277.021V272.137C71.7522 364.724 177.871 434.927 307.288 433.197C405.267 432.078 499.176 394.738 585.862 351.802C757.299 266.847 924.565 135.496 1119.71 113.621C1264.8 97.4438 1385.46 167.748 1481 272.137V277.021Z" fill="#BCBEC0" fill-opacity="0.02"/>
<path d="M1481 263.185C1385.16 158.796 1264.8 88.4917 1119.71 104.669C924.565 126.544 757.299 258.2 585.862 342.85C499.176 385.684 405.267 423.024 307.288 424.245C177.871 425.669 71.7522 355.772 -13 263.185V258.2C71.7522 350.888 177.871 420.786 307.288 419.463C405.267 418.344 499.176 381.004 585.862 338.068C757.299 253.316 924.565 121.558 1119.71 99.7852C1264.8 83.7098 1385.16 153.811 1481 258.2V263.185Z" fill="#BCBEC0" fill-opacity="0.02"/>
<path d="M1481 249.245C1385.16 144.755 1264.8 74.5516 1119.71 90.8306C924.565 112.604 757.299 244.361 585.862 329.012C499.176 371.846 405.267 409.287 307.288 410.305C177.871 411.831 71.7522 341.933 -13 249.245V244.361C71.7522 336.948 177.871 407.151 307.288 405.421C405.267 404.302 499.176 366.962 585.862 324.026C757.299 239.376 924.565 107.72 1119.71 85.8451C1264.8 69.6679 1385.46 139.973 1481 244.361V249.245Z" fill="#BCBEC0" fill-opacity="0.02"/>
<path d="M1481 235.408C1385.16 131.019 1264.8 60.7147 1119.71 76.8919C924.565 98.7667 757.299 230.423 585.862 315.175C499.176 358.416 405.267 395.349 307.288 396.468C177.871 397.892 71.7522 327.893 -13 235.408V230.524C71.7522 323.111 177.871 393.314 307.288 391.483C405.267 390.363 499.176 353.023 585.862 310.088C757.299 225.539 924.565 93.8831 1119.71 72.0082C1264.8 55.831 1385.46 126.136 1481 230.524V235.408Z" fill="#BCBEC0" fill-opacity="0.02"/>
<path d="M1481 221.572C1385.16 117.183 1264.8 46.8783 1119.71 63.3608C924.565 84.8286 757.299 216.586 585.862 301.237C499.176 344.071 405.267 381.411 307.288 382.53C177.871 384.056 71.7522 314.158 -13 221.572V216.586C71.7522 309.275 177.871 378.765 307.288 377.646C405.267 376.527 499.176 339.187 585.862 296.251C757.299 211.499 924.565 79.8432 1119.71 58.0701C1264.8 41.7912 1385.46 112.096 1481 216.485V221.572Z" fill="#BCBEC0" fill-opacity="0.02"/>
<path d="M1481 207.632C1385.16 103.243 1264.8 32.837 1119.71 49.2176C924.565 70.9907 757.299 202.647 585.862 287.195C499.176 330.233 405.267 367.573 307.288 368.59C177.871 370.116 71.7522 300.219 -13 207.53V202.647C71.7522 295.233 177.871 365.436 307.288 363.706C405.267 362.587 499.176 325.247 585.862 282.312C757.299 197.56 924.565 65.9036 1119.71 44.0287C1264.8 27.8515 1385.46 98.1562 1481 202.545V207.632Z" fill="#BCBEC0" fill-opacity="0.02"/>
<path d="M1481 193.796C1385.16 89.4068 1264.8 19.1021 1119.71 35.2793C924.565 57.1542 757.299 188.81 585.862 273.562C499.176 316.396 405.267 353.736 307.288 354.957C177.871 356.382 71.7522 286.484 -13 193.897V189.014C71.7522 281.6 177.871 351.803 307.288 349.972C405.267 348.852 499.176 311.513 585.862 268.577C757.299 183.926 924.565 52.1688 1119.71 30.3957C1264.8 14.2185 1385.46 84.5232 1481 188.912V193.796Z" fill="#BCBEC0" fill-opacity="0.02"/>
<path d="M1481 179.857C1385.16 75.4683 1264.8 5.26531 1119.71 21.4425C924.565 43.0121 757.299 175.279 585.862 259.624C499.176 302.458 405.267 339.798 307.288 340.917C177.871 342.443 71.7522 272.545 -13 179.857V175.279C71.7522 267.662 177.871 338.068 307.288 336.033C405.267 334.914 499.176 297.574 585.862 254.638C757.299 169.988 924.565 38.3319 1119.71 16.5588C1264.8 0.279891 1385.16 70.5846 1481 175.279V179.857Z" fill="#BCBEC0" fill-opacity="0.02"/>
<path d="M1481 166.019C1385.16 61.6308 1264.8 -8.67391 1119.71 7.60503C924.565 29.3781 757.299 161.034 585.862 245.786C499.176 288.62 405.267 325.96 307.288 327.181C177.871 328.504 71.7523 258.606 -12.9999 166.019V161.136C71.7523 253.722 177.871 323.925 307.288 322.196C405.267 321.076 499.176 283.737 585.862 240.801C757.299 156.15 924.565 24.4944 1119.71 2.31437C1264.8 -13.8628 1385.46 56.4419 1481 160.831V166.019Z" fill="#BCBEC0" fill-opacity="0.02"/>
</svg>
