<svg width="198" height="27" viewBox="0 0 198 27" fill="none" xmlns="http://www.w3.org/2000/svg">
<path d="M25.36 0.799998H19.6L12.76 11.996L5.92 0.799998H0.16V26H5.92V11.348L12.436 22.04H13.084L19.6 11.348V26H25.36V0.799998ZM35.4513 20.456V15.992H44.4513V10.52H35.4513V6.344H45.3513V0.799998H29.6913V26H45.5312V20.456H35.4513ZM65.7011 0.799998H46.9811V6.344H53.4611V26H59.2211V6.344H65.7011V0.799998ZM82.4495 26H88.7495L80.1815 0.799998H72.8375L64.2695 26H70.5695L71.8295 22.04H81.1895L82.4495 26ZM73.5575 16.64L76.5095 7.388L79.4615 16.64H73.5575ZM102.008 26.504C106.616 26.504 110.648 24.236 112.808 20.672L107.84 17.792C106.76 19.736 104.564 20.888 102.008 20.888C97.5442 20.888 94.6642 17.9 94.6642 13.4C94.6642 8.9 97.5442 5.912 102.008 5.912C104.564 5.912 106.724 7.064 107.84 9.008L112.808 6.128C110.612 2.564 106.58 0.295998 102.008 0.295998C94.4122 0.295998 88.9042 5.984 88.9042 13.4C88.9042 20.816 94.4122 26.504 102.008 26.504ZM125.048 26.504C130.592 26.504 134.768 23.264 134.768 17.864V0.799998H129.008V17.36C129.008 19.268 128.108 20.888 125.048 20.888C121.988 20.888 121.088 19.268 121.088 17.36V0.799998H115.328V17.864C115.328 23.264 119.504 26.504 125.048 26.504ZM152.17 26H158.362L152.998 16.748C155.77 15.344 157.642 12.536 157.642 9.44C157.642 4.652 153.79 0.799998 149.002 0.799998H138.922V26H144.682V17.72H147.418L152.17 26ZM144.682 6.2H149.002C150.586 6.2 151.882 7.604 151.882 9.44C151.882 11.276 150.586 12.68 149.002 12.68H144.682V6.2ZM169.539 26.504C175.011 26.504 178.899 23.624 178.899 18.764C178.899 13.436 174.615 12.104 170.799 10.952C166.875 9.764 166.263 8.972 166.263 7.82C166.263 6.812 167.163 5.912 168.963 5.912C171.267 5.912 172.455 7.028 173.319 8.828L178.179 5.984C176.343 2.276 173.103 0.295998 168.963 0.295998C164.607 0.295998 160.503 3.104 160.503 7.964C160.503 12.788 164.175 14.588 167.919 15.632C171.699 16.676 173.139 17.288 173.139 18.836C173.139 19.808 172.455 20.888 169.719 20.888C166.875 20.888 165.327 19.484 164.427 17.396L159.459 20.276C160.863 23.984 164.247 26.504 169.539 26.504ZM187.361 20.456V15.992H196.361V10.52H187.361V6.344H197.261V0.799998H181.601V26H197.441V20.456H187.361Z" fill="#61DB94"/>
</svg>
